<svg width="133" height="133" viewBox="0 0 133 133" fill="none" xmlns="http://www.w3.org/2000/svg">
<rect width="133" height="133" rx="32" fill="#0E0E0E"/>
<path d="M40.9602 49.6926C39.8491 48.256 38.3356 47.1826 36.6125 46.6091L32.1674 45.1655C31.8258 45.044 31.5302 44.8197 31.3212 44.5235C31.1122 44.2272 31 43.8736 31 43.511C31 43.1485 31.1122 42.7948 31.3212 42.4986C31.5302 42.2023 31.8258 41.978 32.1674 41.8565L36.6125 40.413C37.9289 39.9586 39.1244 39.2101 40.108 38.2244C41.0917 37.2386 41.8377 36.0416 42.2892 34.7242L42.3268 34.6149L43.7721 30.1732C43.8925 29.8303 44.1164 29.5332 44.413 29.323C44.7095 29.1129 45.064 29 45.4275 29C45.7909 29 46.1454 29.1129 46.4419 29.323C46.7385 29.5332 46.9624 29.8303 47.0828 30.1732L48.5281 34.6149C48.9774 35.9663 49.736 37.1941 50.7435 38.2007C51.751 39.2073 52.9795 39.9648 54.3313 40.413L58.7781 41.8565L58.8669 41.8787C59.2085 42.0003 59.504 42.2245 59.7131 42.5208C59.9221 42.817 60.0343 43.1707 60.0343 43.5332C60.0343 43.8958 59.9221 44.2494 59.7131 44.5457C59.504 44.8419 59.2085 45.0662 58.8669 45.1877L54.4201 46.6313C53.069 47.0803 51.8411 47.8381 50.834 48.8446C49.8269 49.851 49.0684 51.0785 48.6186 52.4294L47.1734 56.871C47.0833 57.1273 46.9349 57.3591 46.7399 57.5483C46.545 57.7374 46.3088 57.8787 46.0499 57.961C45.791 58.0433 45.5166 58.0644 45.2482 58.0226C44.9798 57.9808 44.7248 57.8772 44.5032 57.7201C44.207 57.5102 43.9832 57.2135 43.8626 56.871L42.4174 52.4294C42.0914 51.441 41.5975 50.5154 40.9602 49.6926ZM66.2025 61.4323L63.8484 60.6669C63.1333 60.4293 62.4833 60.0283 61.9501 59.4957C61.417 58.9632 61.0152 58.3137 60.7768 57.5988L60.0132 55.2464C59.9496 55.0645 59.831 54.9069 59.6738 54.7953C59.5166 54.6838 59.3287 54.6239 59.136 54.6239C58.9433 54.6239 58.7553 54.6838 58.5981 54.7953C58.441 54.9069 58.3224 55.0645 58.2587 55.2464L57.4934 57.5988C57.2603 58.3088 56.866 58.9553 56.3414 59.4876C55.8169 60.0198 55.1762 60.4235 54.4697 60.6669L52.1156 61.4323C51.9356 61.4974 51.7801 61.6164 51.6701 61.773C51.5602 61.9297 51.5012 62.1164 51.5012 62.3078C51.5012 62.4992 51.5602 62.6859 51.6701 62.8426C51.7801 62.9992 51.9356 63.1182 52.1156 63.1833L54.4697 63.9487C54.7276 64.0341 54.9787 64.1417 55.2179 64.2698L55.223 64.2954C56.32 64.8809 57.1499 65.8656 57.5412 67.0459L58.3066 69.3982C58.3694 69.5729 58.4829 69.7248 58.6326 69.8344C58.7823 69.9441 58.9614 70.0065 59.1468 70.0136C59.3322 70.0208 59.5156 69.9724 59.6733 69.8746C59.831 69.7768 59.9559 69.6341 60.032 69.4649V69.4478C60.042 69.426 60.0511 69.4037 60.0593 69.3812L60.8247 67.0288C61.0628 66.3138 61.4645 65.6641 61.9977 65.1315C62.5309 64.5989 63.181 64.198 63.8962 63.9606L66.2503 63.1953C66.4303 63.1302 66.5858 63.0112 66.6958 62.8545C66.8057 62.6979 66.8647 62.5111 66.8647 62.3198C66.8647 62.1284 66.8057 61.9416 66.6958 61.785C66.5858 61.6283 66.4303 61.5093 66.2503 61.4442L66.2025 61.4323ZM69.4842 59.7513C68.9653 59.0168 68.2311 58.4616 67.383 58.1625H67.1438L64.9059 57.4279C64.7012 57.3631 64.5141 57.252 64.3592 57.1034C64.2077 56.941 64.0914 56.7491 64.0175 56.5396L63.9287 56.2594L82.6008 37.5874C83.6907 36.4663 84.9925 35.573 86.4306 34.9594C87.8687 34.3458 89.4144 34.0241 90.9779 34.0131C92.5414 34.002 94.0915 34.3019 95.5382 34.8951C96.9848 35.4883 98.2991 36.3632 99.4047 37.4688C100.51 38.5744 101.385 39.8887 101.978 41.3353C102.572 42.7819 102.871 44.332 102.86 45.8955C102.849 47.459 102.528 49.0047 101.914 50.4429C101.3 51.881 100.407 53.1828 99.2861 54.2727L95.4697 58.0908L97.067 59.7957C98.3563 61.1708 99.0603 62.9936 99.03 64.8784C98.9997 66.7632 98.2375 68.5624 96.9047 69.8954L91.0177 75.7823C90.6172 76.1828 90.074 76.4078 89.5076 76.4078C88.9412 76.4078 88.3979 76.1828 87.9974 75.7823C87.5969 75.3818 87.3719 74.8385 87.3719 74.2721C87.3719 73.7057 87.5969 73.1625 87.9974 72.7619L93.8843 66.875C94.4332 66.3264 94.7472 65.5858 94.7599 64.8098C94.7727 64.0339 94.4832 63.2833 93.9527 62.7169L92.4476 61.1111L57.9991 95.5648C56.697 96.8674 55.0684 97.7956 53.2841 98.252L37.0771 102.391C36.7181 102.483 36.3413 102.48 35.9838 102.382C35.6264 102.284 35.3006 102.095 35.0384 101.833C34.7763 101.571 34.5868 101.245 34.4887 100.888C34.3906 100.53 34.3871 100.154 34.4787 99.7946L38.6249 83.5894C39.0813 81.8064 40.0089 80.1791 41.3104 78.8778L53.2038 66.9809L53.4583 67.0647L53.6633 67.1672C53.9859 67.3452 54.2297 67.6378 54.3467 67.9872L55.0983 70.3276C55.3404 71.2414 55.8742 72.0512 56.6187 72.6338C57.1452 73.0049 57.7475 73.2547 58.3821 73.3651C59.0167 73.4754 59.6679 73.4437 60.2888 73.2721C60.9097 73.1006 61.4848 72.7935 61.9727 72.3729C62.4606 71.9524 62.8492 71.4289 63.1104 70.8401L63.4179 70.1226V70.0013L64.0158 68.1392C64.0924 67.9362 64.2086 67.7504 64.3575 67.5925C64.5171 67.4374 64.7099 67.3206 64.9212 67.2509L67.2446 66.4992C68.1325 66.2184 68.907 65.6604 69.4546 64.9072C70.0022 64.1539 70.2939 63.245 70.2871 62.3138C70.2995 61.3959 70.0182 60.498 69.4842 59.7513Z" fill="white"/>
</svg>
